<svg width="19" height="16" viewBox="0 0 19 16" fill="none" xmlns="http://www.w3.org/2000/svg">
<path d="M2.10759 3.02532H17.5L15.0696 11.1266H4.53797L2.10759 3.02532ZM2.10759 3.02532L1.5 1M7.772 7.07595H9.39225M9.39225 7.07595H11.0125M9.39225 7.07595V5.4557M9.39225 7.07595V8.6962M8.58861 13.962C8.58861 14.2843 8.46058 14.5934 8.23269 14.8213C8.00479 15.0492 7.69571 15.1772 7.37342 15.1772C7.05113 15.1772 6.74204 15.0492 6.51415 14.8213C6.28626 14.5934 6.15823 14.2843 6.15823 13.962M13.4494 13.962C13.4494 14.2843 13.3213 14.5934 13.0934 14.8213C12.8656 15.0492 12.5565 15.1772 12.2342 15.1772C11.9119 15.1772 11.6028 15.0492 11.3749 14.8213C11.147 14.5934 11.019 14.2843 11.019 13.962" stroke-width="1.5" stroke-linecap="round" stroke-linejoin="round"/>
</svg>
