<svg width="15" height="14" viewBox="0 0 15 14" fill="none" xmlns="http://www.w3.org/2000/svg">
<path d="M7.38101 13.762C6.02007 13.762 4.6897 13.3584 3.55813 12.6024C2.42655 11.8463 1.5446 10.7716 1.02379 9.51426C0.502981 8.25692 0.366715 6.87338 0.63222 5.53859C0.897725 4.20381 1.55308 2.97773 2.5154 2.0154C3.47773 1.05308 4.70381 0.397725 6.03859 0.13222C7.37337 -0.133285 8.75692 0.00298138 10.0143 0.523788C11.2716 1.0446 12.3463 1.92655 13.1024 3.05813C13.8584 4.1897 14.262 5.52007 14.262 6.88101C14.262 7.78464 14.084 8.67941 13.7382 9.51426C13.3924 10.3491 12.8856 11.1077 12.2466 11.7466C11.6077 12.3856 10.8491 12.8924 10.0143 13.2382C9.17941 13.584 8.28464 13.762 7.38101 13.762ZM7.38101 1.37986C6.2966 1.37986 5.23654 1.70142 4.33489 2.30389C3.43323 2.90636 2.73048 3.76266 2.31549 4.76453C1.90051 5.76639 1.79193 6.86881 2.00349 7.93239C2.21505 8.99596 2.73724 9.97291 3.50403 10.7397C4.27083 11.5065 5.24778 12.0287 6.31135 12.2403C7.37493 12.4518 8.47735 12.3432 9.47921 11.9282C10.4811 11.5133 11.3374 10.8105 11.9398 9.90885C12.5423 9.0072 12.8639 7.94714 12.8639 6.86273C12.8639 5.40858 12.2862 4.01399 11.258 2.98576C10.2297 1.95752 8.83516 1.37986 7.38101 1.37986Z" fill="white"/>
</svg>
