<svg width="28" height="28" viewBox="0 0 28 28" fill="none" xmlns="http://www.w3.org/2000/svg">
<path d="M25.2428 19.1926H8.95957L9.77715 17.5273L23.3615 17.5027C23.8209 17.5027 24.2146 17.1746 24.2967 16.7207L26.1779 6.19062C26.2271 5.91445 26.1533 5.63008 25.9728 5.41406C25.8837 5.30775 25.7724 5.22211 25.6468 5.16309C25.5212 5.10407 25.3843 5.07308 25.2455 5.07227L7.96426 5.01484L7.8166 4.32031C7.72363 3.87734 7.32441 3.55469 6.87051 3.55469H2.6459C2.3899 3.55469 2.14439 3.65638 1.96337 3.8374C1.78236 4.01841 1.68066 4.26393 1.68066 4.51992C1.68066 4.77592 1.78236 5.02143 1.96337 5.20245C2.14439 5.38346 2.3899 5.48516 2.6459 5.48516H6.08848L6.73379 8.55312L8.32246 16.2449L6.27715 19.5836C6.17093 19.727 6.10696 19.8972 6.09246 20.075C6.07796 20.2528 6.11352 20.4312 6.19512 20.5898C6.35918 20.9152 6.69004 21.1203 7.05644 21.1203H8.77363C8.40755 21.6065 8.20982 22.1988 8.21035 22.8074C8.21035 24.3551 9.46816 25.6129 11.0158 25.6129C12.5635 25.6129 13.8213 24.3551 13.8213 22.8074C13.8213 22.1977 13.6189 21.6043 13.258 21.1203H17.6631C17.297 21.6065 17.0993 22.1988 17.0998 22.8074C17.0998 24.3551 18.3576 25.6129 19.9053 25.6129C21.4529 25.6129 22.7107 24.3551 22.7107 22.8074C22.7107 22.1977 22.5084 21.6043 22.1475 21.1203H25.2455C25.776 21.1203 26.2107 20.6883 26.2107 20.1551C26.2092 19.8994 26.1065 19.6546 25.9251 19.4743C25.7438 19.294 25.4985 19.1927 25.2428 19.1926ZM8.36621 6.91797L24.1107 6.96992L22.5686 15.6051L10.201 15.627L8.36621 6.91797ZM11.0158 23.6715C10.54 23.6715 10.1518 23.2832 10.1518 22.8074C10.1518 22.3316 10.54 21.9434 11.0158 21.9434C11.4916 21.9434 11.8799 22.3316 11.8799 22.8074C11.8799 23.0366 11.7888 23.2564 11.6268 23.4184C11.4648 23.5805 11.245 23.6715 11.0158 23.6715ZM19.9053 23.6715C19.4295 23.6715 19.0412 23.2832 19.0412 22.8074C19.0412 22.3316 19.4295 21.9434 19.9053 21.9434C20.3811 21.9434 20.7693 22.3316 20.7693 22.8074C20.7693 23.0366 20.6783 23.2564 20.5163 23.4184C20.3542 23.5805 20.1344 23.6715 19.9053 23.6715Z" fill="#3A3A3A"/>
</svg>
