<svg width="28" height="28" viewBox="0 0 28 28" fill="none" xmlns="http://www.w3.org/2000/svg">
<path d="M23.3408 14V8.16663H25.6742V15.1666H23.3408M23.3408 19.8333H25.6742V17.5H23.3408M11.6742 15.1666C14.7892 15.1666 21.0075 16.73 21.0075 19.8333V23.3333H2.34082V19.8333C2.34082 16.73 8.55915 15.1666 11.6742 15.1666ZM11.6742 4.66663C12.9118 4.66663 14.0988 5.15829 14.974 6.03346C15.8492 6.90863 16.3408 8.09562 16.3408 9.33329C16.3408 10.571 15.8492 11.758 14.974 12.6331C14.0988 13.5083 12.9118 14 11.6742 14C10.4365 14 9.24949 13.5083 8.37432 12.6331C7.49915 11.758 7.00749 10.571 7.00749 9.33329C7.00749 8.09562 7.49915 6.90863 8.37432 6.03346C9.24949 5.15829 10.4365 4.66663 11.6742 4.66663ZM11.6742 17.3833C8.20915 17.3833 4.55749 19.0866 4.55749 19.8333V21.1166H18.7908V19.8333C18.7908 19.0866 15.1392 17.3833 11.6742 17.3833ZM11.6742 6.88329C11.0244 6.88329 10.4012 7.14142 9.94174 7.60088C9.48228 8.06034 9.22415 8.68351 9.22415 9.33329C9.22415 9.98307 9.48228 10.6062 9.94174 11.0657C10.4012 11.5252 11.0244 11.7833 11.6742 11.7833C12.3239 11.7833 12.9471 11.5252 13.4066 11.0657C13.866 10.6062 14.1242 9.98307 14.1242 9.33329C14.1242 8.68351 13.866 8.06034 13.4066 7.60088C12.9471 7.14142 12.3239 6.88329 11.6742 6.88329Z" fill="#3A3A3A"/>
</svg>
