<svg width="61" height="60" viewBox="0 0 61 60" fill="none" xmlns="http://www.w3.org/2000/svg">
<g clip-path="url(#clip0_30_1661)">
<path d="M57.119 21.2612C56.3273 18.8096 56.6648 15.1296 54.607 12.2881C52.533 9.42431 48.9259 8.61033 46.889 7.12064C44.8736 5.64666 42.9986 2.43912 39.6085 1.33287C36.314 0.257791 32.9451 1.71666 30.333 1.71666C27.7213 1.71666 24.3526 0.257439 21.0575 1.33275C17.668 2.43877 15.7914 5.64701 13.7773 7.12029C11.7427 8.60822 8.13289 9.42443 6.05926 12.2878C4.0032 15.1269 4.3373 18.8154 3.54699 21.2611C2.79488 23.5888 0.333008 26.3824 0.333008 30.0002C0.333008 33.6203 2.79207 36.4031 3.54699 38.7392C4.33871 41.1908 4.00121 44.8708 6.05902 47.7123C8.13289 50.5762 11.7399 51.3901 13.777 52.8799C15.792 54.3536 17.6674 57.5614 21.0575 58.6676C24.3498 59.7419 27.7239 58.2838 30.333 58.2838C32.9384 58.2838 36.3205 59.7404 39.6085 58.6677C42.9982 57.5617 44.8735 54.3541 46.8887 52.8801C48.9233 51.3922 52.5331 50.576 54.6068 47.7126C56.6629 44.8734 56.3286 41.1853 57.119 38.7394C57.8711 36.4115 60.333 33.6179 60.333 30.0002C60.333 26.3804 57.8745 23.5984 57.119 21.2612ZM52.6587 37.2979C51.7359 40.1544 51.9777 43.3512 50.8105 44.9629C49.6276 46.5962 46.5199 47.3422 44.1219 49.0963C41.7501 50.8308 40.0878 53.5803 38.1545 54.2111C36.3254 54.8081 33.3446 53.596 30.3331 53.596C27.2996 53.596 24.3495 54.8107 22.5117 54.2111C20.5786 53.5803 18.9186 50.8326 16.5443 49.0962C14.1604 47.3528 11.035 46.5914 9.85555 44.9627C8.69211 43.3563 8.92473 40.1374 8.0075 37.2981C7.10844 34.5162 5.02051 32.1074 5.02051 30.0002C5.02051 27.891 7.10656 25.4905 8.00727 22.7025C8.93012 19.8461 8.68836 16.6492 9.85555 15.0375C11.0377 13.4053 14.1478 12.6568 16.5443 10.9042C18.9235 9.16404 20.5754 6.42103 22.5114 5.78928C24.339 5.19303 27.3295 6.40439 30.3329 6.40439C33.3719 6.40439 36.3146 5.18892 38.1543 5.78928C40.0872 6.41998 41.7486 9.16873 44.1219 10.9043C46.5054 12.6477 49.631 13.409 50.8105 15.0376C51.9741 16.6444 51.7402 19.86 52.6585 22.7022V22.7024C53.5576 25.4843 55.6455 27.8931 55.6455 30.0002C55.6455 32.1095 53.5595 34.5099 52.6587 37.2979ZM41.131 22.4774C42.0464 23.3927 42.0464 24.8767 41.131 25.7919L29.3998 37.5231C28.4845 38.4384 27.0004 38.4383 26.0852 37.5231L19.5351 30.973C18.6198 30.0576 18.6196 28.5737 19.535 27.6585C20.4504 26.7432 21.9345 26.7431 22.8495 27.6585L27.7425 32.5513L37.8162 22.4775C38.7316 21.5621 40.2157 21.5621 41.131 22.4774Z" fill="#3A3A3A"/>
</g>
<defs>
<clipPath id="clip0_30_1661">
<rect width="60" height="60" fill="white" transform="translate(0.333008)"/>
</clipPath>
</defs>
</svg>
