<svg width="20" height="21" viewBox="0 0 20 21" fill="none" xmlns="http://www.w3.org/2000/svg">
<g clip-path="url(#clip0_30_1264)">
<path fill-rule="evenodd" clip-rule="evenodd" d="M0.00732422 10.5558C0.00732422 15.5275 3.61816 19.6617 8.34066 20.5V13.2775H5.84066V10.5H8.34066V8.2775C8.34066 5.7775 9.95149 4.38917 12.2298 4.38917C12.9515 4.38917 13.7298 4.5 14.4515 4.61083V7.16667H13.174C11.9515 7.16667 11.674 7.7775 11.674 8.55583V10.5H14.3407L13.8965 13.2775H11.674V20.5C16.3965 19.6617 20.0073 15.5283 20.0073 10.5558C20.0073 5.025 15.5073 0.5 10.0073 0.5C4.50732 0.5 0.00732422 5.025 0.00732422 10.5558Z" fill="#3A3A3A"/>
</g>
<defs>
<clipPath id="clip0_30_1264">
<rect width="20" height="20" fill="white" transform="translate(0.00732422 0.5)"/>
</clipPath>
</defs>
</svg>
