<svg width="20" height="21" viewBox="0 0 20 21" fill="none" xmlns="http://www.w3.org/2000/svg">
<g clip-path="url(#clip0_30_1268)">
<path fill-rule="evenodd" clip-rule="evenodd" d="M0.840821 2.86498C0.840821 2.45876 1.00219 2.06917 1.28944 1.78193C1.57668 1.49469 1.96626 1.33332 2.37249 1.33332H17.6408C17.8421 1.33299 18.0415 1.37237 18.2276 1.4492C18.4137 1.52604 18.5828 1.63882 18.7252 1.7811C18.8676 1.92337 18.9806 2.09233 19.0576 2.27832C19.1347 2.46431 19.1743 2.66367 19.1742 2.86498V18.1333C19.1744 18.3347 19.1349 18.5341 19.058 18.7202C18.981 18.9062 18.8682 19.0753 18.7258 19.2177C18.5835 19.3602 18.4145 19.4731 18.2284 19.5501C18.0424 19.6272 17.843 19.6668 17.6417 19.6666H2.37249C2.17128 19.6666 1.97204 19.627 1.78615 19.55C1.60027 19.473 1.43138 19.3601 1.28914 19.2177C1.1469 19.0754 1.0341 18.9065 0.957172 18.7205C0.880248 18.5346 0.840711 18.3354 0.840821 18.1341V2.86498ZM8.09749 8.32332H10.58V9.56998C10.9383 8.85332 11.855 8.20832 13.2325 8.20832C15.8733 8.20832 16.4992 9.63582 16.4992 12.255V17.1066H13.8267V12.8516C13.8267 11.36 13.4683 10.5183 12.5583 10.5183C11.2958 10.5183 10.7708 11.4258 10.7708 12.8516V17.1066H8.09749V8.32332ZM3.51415 16.9925H6.18749V8.20832H3.51415V16.9916V16.9925ZM6.56999 5.34332C6.57503 5.57221 6.5343 5.7998 6.45019 6.01274C6.36608 6.22568 6.24028 6.41968 6.08018 6.58334C5.92008 6.74701 5.7289 6.87704 5.51787 6.96582C5.30683 7.0546 5.08019 7.10033 4.85124 7.10033C4.62229 7.10033 4.39564 7.0546 4.18461 6.96582C3.97357 6.87704 3.78239 6.74701 3.62229 6.58334C3.46219 6.41968 3.3364 6.22568 3.25229 6.01274C3.16818 5.7998 3.12745 5.57221 3.13249 5.34332C3.14238 4.89403 3.32781 4.46647 3.64906 4.15222C3.97031 3.83797 4.40184 3.662 4.85124 3.662C5.30063 3.662 5.73217 3.83797 6.05342 4.15222C6.37467 4.46647 6.56009 4.89403 6.56999 5.34332Z" fill="#3A3A3A"/>
</g>
<defs>
<clipPath id="clip0_30_1268">
<rect width="20" height="20" fill="white" transform="translate(0.00732422 0.5)"/>
</clipPath>
</defs>
</svg>
