<svg width="124" height="20" viewBox="0 0 124 20" fill="none" xmlns="http://www.w3.org/2000/svg">
<path d="M10.0073 1L13.0073 7L19.0073 7.75L14.8873 12.37L16.0073 19L10.0073 16L4.00732 19L5.13732 12.37L1.00732 7.75L7.00732 7L10.0073 1Z" fill="#FF9900"/>
<path d="M36.0073 1L39.0073 7L45.0073 7.75L40.8873 12.37L42.0073 19L36.0073 16L30.0073 19L31.1373 12.37L27.0073 7.75L33.0073 7L36.0073 1Z" fill="#FF9900"/>
<path d="M62.0073 1L65.0073 7L71.0073 7.75L66.8873 12.37L68.0073 19L62.0073 16L56.0073 19L57.1373 12.37L53.0073 7.75L59.0073 7L62.0073 1Z" fill="#FF9900"/>
<path d="M88.0073 1L91.0073 7L97.0073 7.75L92.8873 12.37L94.0073 19L88.0073 16L82.0073 19L83.1373 12.37L79.0073 7.75L85.0073 7L88.0073 1Z" fill="#FF9900"/>
<g clip-path="url(#clip0_30_1209)">
<path d="M111.163 7.0125L104.807 7.9375L109.407 12.4188L108.32 18.75L114.007 15.7625V1.25L111.163 7.0125Z" fill="#FF9900"/>
</g>
<defs>
<clipPath id="clip0_30_1209">
<rect width="20" height="20" fill="white" transform="translate(104.007)"/>
</clipPath>
</defs>
</svg>
