<svg width="25" height="25" viewBox="0 0 25 25" fill="none" xmlns="http://www.w3.org/2000/svg">
<path d="M12.5073 1.5625C6.46729 1.5625 1.56982 6.45996 1.56982 12.5C1.56982 18.54 6.46729 23.4375 12.5073 23.4375C18.5474 23.4375 23.4448 18.54 23.4448 12.5C23.4448 6.45996 18.5474 1.5625 12.5073 1.5625ZM17.7637 9.80713C17.771 9.92188 17.771 10.0415 17.771 10.1587C17.771 13.7427 15.0415 17.8711 10.0537 17.8711C8.51562 17.8711 7.08984 17.4243 5.88867 16.6553C6.1084 16.6797 6.31836 16.6895 6.54297 16.6895C7.8125 16.6895 8.97949 16.2598 9.90967 15.5322C8.71826 15.5078 7.71728 14.7266 7.37549 13.6523C7.79297 13.7134 8.16895 13.7134 8.59863 13.6035C7.98517 13.4789 7.43378 13.1457 7.03813 12.6606C6.64247 12.1755 6.42697 11.5684 6.42822 10.9424V10.9082C6.78711 11.1108 7.20947 11.2354 7.65137 11.2524C7.27989 11.0049 6.97524 10.6695 6.76443 10.276C6.55362 9.88244 6.44317 9.443 6.44287 8.99658C6.44287 8.49121 6.57471 8.02979 6.81152 7.62939C7.49244 8.46762 8.34212 9.15318 9.30533 9.64152C10.2686 10.1299 11.3237 10.41 12.4023 10.4639C12.019 8.62061 13.396 7.12891 15.0513 7.12891C15.8325 7.12891 16.5356 7.45605 17.0312 7.9834C17.644 7.86865 18.23 7.63916 18.7524 7.33154C18.5498 7.95898 18.125 8.48877 17.561 8.82324C18.1079 8.76465 18.6353 8.61328 19.1235 8.40088C18.7549 8.94287 18.2935 9.42383 17.7637 9.80713Z" fill="#3A3A3A"/>
</svg>
