<svg width="21" height="21" viewBox="0 0 21 21" fill="none" xmlns="http://www.w3.org/2000/svg">
<path fill-rule="evenodd" clip-rule="evenodd" d="M10.5 0.5C4.97727 0.5 0.5 4.97727 0.5 10.5C0.5 16.0227 4.97727 20.5 10.5 20.5C16.0227 20.5 20.5 16.0227 20.5 10.5C20.5 4.97727 16.0227 0.5 10.5 0.5ZM13.87 8.41545C14.0356 8.244 14.1272 8.01436 14.1252 7.776C14.1231 7.53764 14.0275 7.30963 13.8589 7.14107C13.6904 6.97252 13.4624 6.87691 13.224 6.87484C12.9856 6.87277 12.756 6.9644 12.5845 7.13L10.5 9.21455L8.41545 7.13C8.33159 7.04317 8.23128 6.97392 8.12037 6.92627C8.00946 6.87863 7.89016 6.85355 7.76946 6.8525C7.64875 6.85145 7.52904 6.87445 7.41731 6.92016C7.30559 6.96587 7.20409 7.03338 7.11873 7.11873C7.03338 7.20409 6.96587 7.30559 6.92016 7.41731C6.87445 7.52904 6.85145 7.64875 6.8525 7.76946C6.85355 7.89016 6.87863 8.00946 6.92627 8.12037C6.97392 8.23128 7.04317 8.33159 7.13 8.41545L9.21455 10.5L7.13 12.5845C7.04317 12.6684 6.97392 12.7687 6.92627 12.8796C6.87863 12.9905 6.85355 13.1098 6.8525 13.2305C6.85145 13.3513 6.87445 13.471 6.92016 13.5827C6.96587 13.6944 7.03338 13.7959 7.11873 13.8813C7.20409 13.9666 7.30559 14.0341 7.41731 14.0798C7.52904 14.1255 7.64875 14.1486 7.76946 14.1475C7.89016 14.1465 8.00946 14.1214 8.12037 14.0737C8.23128 14.0261 8.33159 13.9568 8.41545 13.87L10.5 11.7855L12.5845 13.87C12.756 14.0356 12.9856 14.1272 13.224 14.1252C13.4624 14.1231 13.6904 14.0275 13.8589 13.8589C14.0275 13.6904 14.1231 13.4624 14.1252 13.224C14.1272 12.9856 14.0356 12.756 13.87 12.5845L11.7855 10.5L13.87 8.41545Z" fill="#ACACAC"/>
</svg>
